<?xml version="1.0" encoding="UTF-8" standalone="no"?>
<!-- Created with Inkscape (http://www.inkscape.org/) -->

<svg
   width="512"
   height="628.66602"
   viewBox="0 0 135.46666 166.33455"
   version="1.1"
   id="svg1"
   xmlns="http://www.w3.org/2000/svg"
   xmlns:svg="http://www.w3.org/2000/svg">
  <defs
     id="defs1" />
  <g
     id="layer1"
     transform="translate(-365.38234,217.41618)">
    <g
       id="g1"
       transform="translate(-3.3267056e-6,1.929596)">
      <path
         id="path274"
         style="fill:#ffff00;stroke:#000000;stroke-width:0;stroke-miterlimit:0;stroke-dasharray:none"
         d="m 433.03061,-192.39906 a 40.593895,40.61895 0 0 1 0.17012,-0.0166 15.623422,15.62343 0 0 0 -0.0323,-0.005 15.623422,15.62343 0 0 0 -0.13779,0.0217 z" />
      <path
         id="path271"
         style="fill:#ffff00;stroke:#000000;stroke-width:0;stroke-miterlimit:0;stroke-dasharray:none"
         d="m 433.16868,-167.60402 a 40.593895,40.61895 0 0 0 -0.10602,-0.19788 15.623422,15.62343 0 0 0 0.0958,0.18779 15.623422,15.62343 0 0 0 0.0101,0.0101 z" />
      <path
         id="path254"
         style="fill:#b81414;fill-opacity:1;stroke:#000000;stroke-width:0;stroke-miterlimit:0;stroke-dasharray:none"
         d="m 408.09223,-111.17973 c 0.54544,-10e-5 1.09049,0.0283 1.63294,0.0852 0.54253,0.057 1.08171,0.14248 1.61529,0.25595 0.53368,0.11347 1.06105,0.25484 1.57996,0.42348 0.17821,0.0647 0.35525,0.13273 0.53099,0.20393 l 2.75407,-2.33813 c -0.87809,0.11582 -4.59052,0.42095 -5.47428,0.47906 -0.88385,0.0578 -2.63897,0.0868 -2.63897,0.89043 z m 6.35461,1.35078 c 0.4984,0.22188 0.98481,0.46973 1.45729,0.74251 0.47238,0.27267 0.93019,0.56988 1.37147,0.89043 0.44135,0.32066 0.86562,0.6642 1.27102,1.02925 0.40523,0.36501 0.79107,0.75104 1.15592,1.15642 0.36505,0.40523 0.7086,0.82935 1.02924,1.27052 0.32075,0.44147 0.61813,0.89942 0.89093,1.37197 0.27278,0.47232 0.52063,0.95857 0.74253,1.4568 0.22189,0.4984 0.4175,1.00808 0.58607,1.52694 0.16844,0.518738 0.30965,1.045941 0.42297,1.579443 0.11346,0.533589 0.19888,1.072753 0.25595,1.615279 0.0569,0.542452 0.0852,1.087513 0.0851,1.632944 1.6e-4,1.63952 -0.25772,3.268849 -0.7642,4.82817 -0.43242,1.182332 -0.90129,2.334583 -1.60383,3.379231 0.5344,0.135468 0.96569,0.237678 1.50337,0.359636 7.91899,1.254473 14.64709,2.674108 20.30353,0.726877 1.13249,-0.272449 1.2298,-0.904219 1.77817,-1.013037 -0.72246,-1.067935 -1.21285,-2.240422 -1.65195,-3.452704 -0.50668,-1.559293 -0.76476,-3.188623 -0.76475,-4.828169 4e-5,-1.639377 0.25812,-3.26853 0.76475,-4.82766 0.50652,-1.55935 1.25533,-3.02926 2.21898,-4.35572 0.96376,-1.3263 2.13025,-2.49263 3.45669,-3.45619 1.19575,-0.83781 2.50308,-1.50386 3.88374,-1.97872 -0.0678,-0.68978 3.68605,-1.57987 1.88633,-2.00666 -2.60789,-0.51905 -8.84268,-2.36256 -11.29923,-3.38071 -2.45654,-1.01832 -4.95559,-1.76172 -7.16639,-3.24004 -0.84184,-0.57448 -2.39046,-1.40514 -3.01203,-1.68868 -0.34195,0.0921 -0.82504,0.61018 -0.91598,0.68935 -0.70273,0.5395 -1.87188,0.6981 -3.60985,1.86887 -2.14831,1.45387 -3.0312,1.90106 -5.41471,2.88981 -1.55645,0.72245 -3.20282,1.17982 -4.85492,1.61881 -0.8555,0.22942 -6.00926,1.22168 -6.10249,2.83571 z m 38.39314,-0.34578 c 0.16017,-0.0629 0.31166,-0.12184 0.49871,-0.19925 1.49062,-0.58087 3.16105,-0.8057 4.80043,-0.80575 -1.96578,-0.82501 -4.52341,-1.22362 -6.74313,-1.63123 -0.5239,-0.0542 1.02721,2.21946 1.44399,2.63623 z m -31.49254,22.825687 c -0.18703,0.325218 -0.43339,0.648046 -0.61566,0.975965 -0.96358,1.326256 -2.12993,2.492589 -3.45618,3.456192 -1.32627,0.963758 -3.71265,2.005523 -4.35518,2.187188 -0.0828,0.02933 -0.16313,0.04737 -0.24482,0.07108 -0.45683,0.234157 0.12942,1.478174 0.4442,1.943464 2.47115,3.112257 4.87145,6.17503 8.2732,7.971231 3.67705,1.941535 7.5476,2.309843 11.51343,2.336058 4.63126,-0.06273 9.22559,-0.912677 13.14082,-3.229844 3.55983,-2.370131 5.69342,-4.293059 8.34595,-7.632697 0.29073,-0.383386 0.28766,-0.767009 -0.71224,-1.368443 -0.12339,-0.0352 -0.25229,-0.07756 -0.37807,-0.118514 -0.5655,-0.215484 -3.02035,-1.195771 -4.34662,-2.159528 -1.32645,-0.963561 -2.49295,-2.129897 -3.4567,-3.456192 -0.16678,-0.301968 -0.42062,-0.590151 -0.56706,-0.902495 -3.58912,0.712213 -11.53357,0.939793 -21.71618,-0.673266 -0.53767,-0.121956 -1.15067,-0.649073 -1.86889,0.599791 z" />
      <path
         id="path249"
         style="fill:#a01212;fill-opacity:1;stroke:#000000;stroke-width:0;stroke-miterlimit:0;stroke-dasharray:none"
         d="m 473.65868,-95.134025 a 15.623422,15.62343 0 0 1 -0.6976,4.405671 15.623422,15.62343 0 0 1 -2.21902,4.355197 15.623422,15.62343 0 0 1 -3.45668,3.456193 15.623422,15.62343 0 0 1 -4.35518,2.219492 15.623422,15.62343 0 0 1 -4.82819,0.764229 15.623422,15.62343 0 0 1 -4.45816,-0.705674 24.997477,24.997477 0 0 1 -0.83843,1.174608 24.997477,24.997477 0 0 1 -1.33512,1.576918 24.997477,24.997477 0 0 1 -1.46083,1.460817 24.997477,24.997477 0 0 1 -1.57692,1.335129 24.997477,24.997477 0 0 1 -1.6814,1.200859 24.997477,24.997477 0 0 1 -1.77477,1.057503 24.997477,24.997477 0 0 1 -1.85608,0.907079 24.997477,24.997477 0 0 1 -1.92471,0.751107 24.997477,24.997477 0 0 1 -1.98022,0.589576 24.997477,24.997477 0 0 1 -2.02212,0.424009 24.997477,24.997477 0 0 1 -2.0499,0.255419 24.997477,24.997477 0 0 1 -2.06452,0.08532 24.997477,24.997477 0 0 1 -5.56262,-0.626426 24.997477,24.997477 0 0 1 -5.28348,-1.848989 24.997477,24.997477 0 0 1 -4.73931,-2.97817 24.997477,24.997477 0 0 1 -3.95846,-3.957938 24.997477,24.997477 0 0 1 -0.89647,-1.426494 15.623422,15.62343 0 0 1 -4.58337,0.725362 15.623422,15.62343 0 0 1 -4.82766,-0.76423 15.623422,15.62343 0 0 1 -4.35519,-2.219491 15.623422,15.62343 0 0 1 -3.45668,-3.456193 15.623422,15.62343 0 0 1 -2.219,-4.355197 15.623422,15.62343 0 0 1 -0.62392,-3.93926 40.593895,40.61895 0 0 0 0.69204,7.032519 40.593895,40.61895 0 0 0 2.31038,7.620077 40.593895,40.61895 0 0 0 3.75096,7.022426 40.593895,40.61895 0 0 0 5.04826,6.155221 40.593895,40.61895 0 0 0 6.15169,5.05128 40.593895,40.61895 0 0 0 7.0184,3.753503 40.593895,40.61895 0 0 0 7.61502,2.311869 40.593895,40.61895 0 0 0 7.91437,0.779878 h 0.0207 a 40.593895,40.61895 0 0 0 2.63945,-0.08633 40.593895,40.61895 0 0 0 2.64353,-0.260966 40.593895,40.61895 0 0 0 2.62079,-0.432593 40.593895,40.61895 0 0 0 2.58698,-0.60371 40.593895,40.61895 0 0 0 2.54204,-0.7718 40.593895,40.61895 0 0 0 2.486,-0.936358 40.593895,40.61895 0 0 0 2.41989,-1.096876 40.593895,40.61895 0 0 0 2.34265,-1.252848 40.593895,40.61895 0 0 0 2.25585,-1.40378 40.593895,40.61895 0 0 0 2.15892,-1.548143 40.593895,40.61895 0 0 0 2.05342,-1.685946 40.593895,40.61895 0 0 0 1.93885,-1.81719 40.593895,40.61895 0 0 0 1.81617,-1.939849 40.593895,40.61895 0 0 0 1.68493,-2.054937 40.593895,40.61895 0 0 0 1.54764,-2.160436 40.593895,40.61895 0 0 0 1.40227,-2.257351 40.593895,40.61895 0 0 0 1.25235,-2.344173 40.593895,40.61895 0 0 0 1.09638,-2.420901 40.593895,40.61895 0 0 0 0.93586,-2.488034 40.593895,40.61895 0 0 0 0.77076,-2.543559 40.593895,40.61895 0 0 0 0.60321,-2.588484 40.593895,40.61895 0 0 0 0.43308,-2.622305 40.593895,40.61895 0 0 0 0.26049,-2.645522 40.593895,40.61895 0 0 0 0.0726,-2.231104 z" />
      <path
         id="path232"
         style="fill:#e5d41a;fill-opacity:1;stroke:#000000;stroke-width:0;stroke-miterlimit:0;stroke-dasharray:none"
         d="m 433.11568,-217.41618 c 2.65896,-3e-5 5.31152,0.26134 7.91941,0.78039 2.60786,0.51901 5.15846,1.29322 7.61502,2.31134 2.45669,1.01816 4.80743,2.27535 7.01839,3.75352 2.21079,1.47828 4.2711,3.17034 6.15119,5.05178 1.88031,1.88134 3.57136,3.94296 5.04874,6.15523 1.47716,2.21225 2.73353,4.56432 3.751,7.02242 0.25498,0.7597 0.48747,1.52678 0.69709,2.30026 0.60984,0.165 10.13189,7.21057 13.76209,10.95052 4.7674,4.91151 8.82405,11.80535 11.8007,19.43629 0.51809,2.60723 1.85278,5.19055 1.85303,7.84886 -1.2e-4,-3.43521 -0.27,-6.86511 -0.80714,-10.25803 -0.53775,-3.39523 -1.34146,-6.74292 -2.40374,-10.0122 -1.06223,-3.26915 -2.37972,-6.44977 -3.94025,-9.51251 -1.56059,-3.06289 -3.35941,-5.99846 -5.37991,-8.77954 -2.02055,-2.78098 -4.25654,-5.3989 -6.68726,-7.82955 -2.43065,-2.43073 -5.04857,-4.66669 -7.82955,-6.68723 -2.78092,-2.0205 -5.71631,-3.81931 -8.77904,-5.37992 -3.06288,-1.56056 -6.24367,-2.87806 -9.51297,-3.94025 -3.26929,-1.0623 -6.617,-1.866 -10.0122,-2.40376 -3.39512,-0.53767 -6.82721,-0.80768 -10.2646,-0.80762 z m 0,0 c -3.43757,-9e-5 -6.86985,0.26993 -10.26509,0.80762 -3.39507,0.53779 -6.74258,1.34149 -10.0117,2.40376 -3.26931,1.06219 -6.45011,2.37969 -9.51301,3.94025 -3.06272,1.56061 -5.99812,3.35942 -8.77903,5.37992 -2.78098,2.02054 -5.3989,4.2565 -7.82956,6.68723 -2.43072,2.43065 -4.6667,5.04857 -6.68723,7.82955 -2.02051,2.78108 -3.81933,5.71665 -5.37991,8.77954 -1.56054,3.06274 -2.87803,6.24336 -3.94026,9.51251 -1.06229,3.26928 -1.866,6.61697 -2.40376,10.0122 -0.53684,3.39093 -0.80669,6.81878 -0.80712,10.25197 6.4e-4,-2.65628 2.22624,-5.21471 2.7439,-7.81997 3.33991,-6.25195 4.76181,-11.0341 11.29615,-19.96372 5.35322,-4.71742 8.24968,-6.47469 13.37528,-10.44592 0.2098,-0.77348 0.44244,-1.54057 0.6976,-2.30026 1.01746,-2.45809 2.27382,-4.81017 3.75096,-7.02242 1.47724,-2.21224 3.16812,-4.27387 5.04826,-6.15523 1.88026,-1.88147 3.94073,-3.57353 6.15169,-5.05178 2.21096,-1.47817 4.5617,-2.73536 7.0184,-3.75352 2.45655,-1.01812 5.00716,-1.79233 7.61502,-2.31134 2.60789,-0.51905 5.26042,-0.78042 7.91941,-0.78039 z m 10.17727,45.42311 c -0.50666,-1.5593 -0.83038,-3.16486 -0.83037,-4.8044 5e-5,-1.63937 0.25813,-3.26853 0.76475,-4.82766 0.50658,-1.55917 1.2554,-3.02889 2.21897,-4.3552 0.96372,-1.32647 2.13022,-2.49298 3.45671,-3.45669 1.32631,-0.96358 2.79602,-1.7124 4.35519,-2.21901 1.51631,-0.48515 3.09784,-0.73573 4.68986,-0.74303 -2.59461,0.006 -5.18265,0.26127 -7.72859,0.76172 -2.60788,0.51903 -5.15846,1.29322 -7.61505,2.31136 -2.4565,1.01834 -4.80711,2.27571 -7.01787,3.75401 -0.84992,0.64351 -1.67419,1.32028 -2.47087,2.02869 0.38043,1.6453 1.31873,2.92918 2.48553,4.00791 1.88014,1.88135 3.3449,3.50687 4.82211,5.71911 z" />
      <path
         id="path236"
         style="fill:#e51a1a;fill-opacity:1;stroke:#000000;stroke-width:0;stroke-miterlimit:0;stroke-dasharray:none"
         d="m 394.9144,-190.04124 c -0.79265,0.21451 -1.57862,0.45304 -2.35681,0.71526 -2.45666,1.01813 -4.80742,2.27535 -7.01837,3.75349 -2.21081,1.4783 -4.27108,3.17035 -6.15118,5.05179 -1.88015,1.88136 -3.57103,3.94299 -5.04827,6.15523 -1.47733,2.21221 -2.73386,4.56432 -3.75149,7.02242 -1.01748,2.4582 -1.79117,5.01048 -2.30981,7.62008 -0.51772,2.60528 -0.77876,5.25506 -0.7794,7.91134 v 0.003 0.0202 0.003 c 6.1e-4,2.65645 0.26164,5.3064 0.7794,7.91185 0.51864,2.60958 1.29233,5.16188 2.30981,7.62007 1.01765,2.4581 2.27416,4.8102 3.75149,7.02243 1.47724,2.21221 3.16812,4.27387 5.04827,6.15523 1.88013,1.88127 3.9404,3.57315 6.15118,5.05128 2.21093,1.47832 4.56169,2.73569 7.01837,3.75398 1.33871,0.48462 2.70198,0.89844 4.08413,1.23974 0.78511,-1.76053 1.6945,-3.46288 2.72124,-5.09417 1.47724,-2.21224 3.16812,-4.27387 5.04826,-6.15523 1.88026,-1.88146 3.94073,-3.57351 6.15169,-5.05178 2.21096,-1.47816 4.5617,-2.73537 7.0184,-3.75352 1.33871,-0.48462 2.70195,-0.89842 4.08413,-1.23971 -0.36065,-0.63339 -0.70419,-1.27637 -1.03027,-1.92825 -0.25498,-0.7597 -0.48747,-1.5268 -0.69709,-2.30025 -0.79264,-0.21453 -1.57862,-0.45305 -2.35677,-0.71528 -2.45672,-1.01829 -4.80746,-2.27566 -7.0184,-3.75399 -2.21094,-1.47811 -4.27141,-3.16999 -6.15169,-5.0513 -1.88014,-1.88135 -3.57102,-3.94299 -5.04826,-6.1552 -1.47714,-2.21227 -2.7335,-4.56434 -3.75096,-7.02245 -1.01769,-2.45814 -1.79152,-5.01046 -2.31038,-7.62005 -0.51869,-2.60957 -0.77993,-5.2638 -0.77987,-7.92447 -2e-5,-2.66051 0.26121,-5.31457 0.77987,-7.92394 0.41557,-1.80805 0.95439,-3.58549 1.61278,-5.31984 z m 25.02368,51.4865 c 1.71472,0.65025 3.47149,1.18351 5.25825,1.5961 2.60789,0.51902 5.26042,0.78041 7.91941,0.78038 0.88574,5e-5 1.77125,-0.0289 2.6551,-0.0867 0.88378,-0.058 1.76542,-0.14515 2.64352,-0.26097 0.87808,-0.11556 1.75214,-0.25983 2.62079,-0.4326 0.86867,-0.17295 1.73145,-0.37429 2.58698,-0.6037 0.85552,-0.22946 1.70332,-0.48686 2.54204,-0.77182 0.0831,-0.0309 0.16632,-0.0622 0.24935,-0.0938 0.0398,-0.10467 0.0792,-0.20948 0.1181,-0.31448 0.28478,-0.83919 0.542,-1.68751 0.77132,-2.54355 0.22923,-0.85601 0.4304,-1.71931 0.6032,-2.58848 0.17274,-0.86917 0.31701,-1.74373 0.43259,-2.62231 0.11565,-0.87876 0.20251,-1.76109 0.26046,-2.64553 0.0578,-0.88434 0.0867,-1.77037 0.0867,-2.65661 1e-5,-2.66053 -0.26121,-5.31457 -0.77988,-7.92397 -0.51884,-2.60962 -1.29268,-5.16189 -2.31036,-7.62008 -0.046,-0.087 -0.0925,-0.17414 -0.1393,-0.26097 l -0.0101,-0.0101 c -0.0324,-0.0623 -0.0643,-0.12496 -0.0958,-0.18779 -0.96536,-2.29058 -2.13886,-4.48765 -3.50565,-6.56357 -1.47724,-2.21224 -3.1681,-4.27386 -5.04825,-6.15522 -1.16677,-1.07874 -2.39583,-2.08799 -3.68082,-3.02259 -1.28498,0.9346 -2.51406,1.94385 -3.68081,3.02259 -1.88016,1.88136 -3.57103,3.94298 -5.04825,6.15522 -1.47734,2.21222 -2.73387,4.56432 -3.75151,7.02242 -1.01749,2.4582 -1.79117,5.01048 -2.30982,7.62008 -0.5187,2.6094 -0.77989,5.26344 -0.77988,7.92397 -5e-5,2.66066 0.26115,5.31488 0.77988,7.92445 0.41553,1.80803 0.95438,3.58548 1.61273,5.31982 z m 13.17766,-38.97819 c 0.23405,-4e-5 0.46736,0.0262 0.69559,0.0782 0.22802,0.052 0.44951,0.12965 0.66022,0.23118 0.21087,0.10159 0.40965,0.22657 0.59261,0.37255 0.18289,0.14584 0.34882,0.31178 0.49468,0.49468 0.14577,0.1828 0.27056,0.38141 0.37202,0.59208 0.10157,0.21091 0.17911,0.43252 0.23118,0.66077 0.0519,0.22802 0.0782,0.46116 0.0782,0.69506 4e-5,0.54846 -0.14427,1.08727 -0.41846,1.56228 -0.27426,0.47505 -0.66874,0.86955 -1.14382,1.14381 -0.47494,0.27436 -1.01376,0.41885 -1.56226,0.41897 -0.54851,-1.2e-4 -1.08733,-0.14461 -1.56231,-0.41897 -0.47502,-0.27426 -0.86952,-0.66876 -1.14381,-1.14381 -0.27416,-0.47501 -0.41848,-1.01382 -0.41844,-1.56228 -4e-5,-0.54846 0.14428,-1.08727 0.41844,-1.56228 0.27429,-0.47507 0.66879,-0.86955 1.14381,-1.14383 0.47503,-0.27417 1.01385,-0.41848 1.56231,-0.41844 z m -13.17766,38.97819 c 0.20962,0.77345 0.44211,1.54056 0.69709,2.30025 0.32608,0.65188 0.66962,1.29486 1.03027,1.92825 1.1601,-0.41057 2.3383,-0.76814 3.53089,-1.07164 2.60789,-0.51902 5.26042,-0.78041 7.91941,-0.78038 -2.65899,3e-5 -5.31152,-0.26136 -7.91941,-0.78038 -1.78676,-0.41259 -3.54353,-0.94585 -5.25825,-1.5961 z m 13.17766,2.37648 c 2.65896,-3e-5 5.31152,0.26136 7.91941,0.78038 1.23975,0.31316 2.464,0.68474 3.66869,1.11353 0.31475,-0.64868 0.61217,-1.3056 0.89193,-1.97014 0.29322,-0.71656 0.56594,-1.44138 0.81775,-2.17356 -0.0829,0.0315 -0.16613,0.0629 -0.24935,0.0938 -0.83872,0.28496 -1.68652,0.54236 -2.54204,0.77182 -0.85553,0.2294 -1.71831,0.43075 -2.58698,0.60369 -0.86865,0.17277 -1.74271,0.31704 -2.62079,0.43261 -0.8781,0.11582 -1.75974,0.20285 -2.64352,0.26096 -0.88385,0.0578 -1.76936,0.0867 -2.6551,0.0867 z m 0,0 c -2.65899,-3e-5 -5.31152,0.26136 -7.91941,0.78038 -1.19259,0.3035 -2.37079,0.66107 -3.53089,1.07164 0.78511,1.76054 1.69449,3.46288 2.72124,5.09418 1.47722,2.21221 3.16809,4.27388 5.04824,6.15523 1.20776,1.12162 2.48266,2.1686 3.81761,3.13514 0.5462,-0.42554 1.08144,-0.865 1.60518,-1.31795 0.66591,-0.5844 1.31255,-1.19046 1.93885,-1.81719 0.62621,-0.62664 1.23176,-1.2736 1.81568,-1.93985 0.58406,-0.66641 1.14618,-1.35174 1.68543,-2.05496 0.53913,-0.70306 1.05511,-1.42357 1.54714,-2.16042 0.49208,-0.73694 0.95991,-1.48979 1.40275,-2.25736 0.4429,-0.7675 0.86057,-1.54931 1.25234,-2.34416 0.0688,-0.14985 0.13689,-0.3001 0.20394,-0.45077 -1.20469,-0.42879 -2.42894,-0.80037 -3.66869,-1.11353 -2.60789,-0.51902 -5.26045,-0.78041 -7.91941,-0.78038 z m 11.5881,1.89391 c 1.33486,0.33214 2.65203,0.73192 3.94633,1.19783 2.45669,1.01816 4.80743,2.27535 7.01839,3.75351 2.21079,1.47829 4.2711,3.17035 6.15119,5.05179 1.88031,1.88132 3.57136,3.94296 5.04874,6.15521 1.06194,1.67907 1.9993,3.43383 2.80455,5.25016 0.50786,-0.1434 1.01289,-0.29673 1.51481,-0.45986 0.83865,-0.28473 1.66777,-0.59686 2.48603,-0.93584 0.8182,-0.33928 1.62509,-0.70528 2.41937,-1.09739 0.79434,-0.39192 1.57564,-0.80976 2.34267,-1.25284 0.76704,-0.44317 1.51938,-0.91134 2.25583,-1.40376 0.73651,-0.49234 1.45669,-1.00867 2.15944,-1.54816 0.70267,-0.53941 1.38751,-1.10172 2.05342,-1.68594 0.66592,-0.5844 1.31255,-1.19046 1.93883,-1.81719 0.62622,-0.62664 1.23176,-1.2736 1.81567,-1.93985 0.58408,-0.66641 1.1462,-1.35174 1.68544,-2.05496 0.53913,-0.70306 1.05512,-1.42357 1.54715,-2.16042 0.49208,-0.73694 0.9599,-1.48979 1.40277,-2.25736 0.44288,-0.7675 0.86056,-1.54931 1.25233,-2.34416 0.39176,-0.79477 0.75742,-1.60218 1.09637,-2.42091 0.33882,-0.81889 0.65078,-1.64869 0.93535,-2.48803 0.28476,-0.8392 0.542,-1.68751 0.7713,-2.54355 0.22923,-0.85602 0.43041,-1.71932 0.6032,-2.58849 0.17275,-0.86916 0.31702,-1.74372 0.4326,-2.6223 0.11565,-0.87876 0.2025,-1.76109 0.26045,-2.64553 0.0573,-0.87798 0.086,-1.75759 0.0862,-2.63746 v -0.004 -0.0206 -0.002 c -2.5e-4,-2.6583 -0.26129,-5.31013 -0.77938,-7.9174 -0.51866,-2.60961 -1.29233,-5.16187 -2.30984,-7.62008 -1.01762,-2.45809 -2.27415,-4.8102 -3.75148,-7.02241 -1.47724,-2.21224 -3.16811,-4.27387 -5.04825,-6.15522 -1.88027,-1.88147 -3.94071,-3.57354 -6.1517,-5.05179 -2.2108,-1.47813 -4.56137,-2.73533 -7.01787,-3.75351 -0.77834,-0.26221 -1.56448,-0.50075 -2.3573,-0.71526 0.65836,1.73434 1.1972,3.51178 1.61275,5.31982 0.51885,2.60937 0.78022,5.26343 0.78038,7.92395 2e-5,0.88624 -0.0289,1.77227 -0.0867,2.65662 -0.0578,0.88446 -0.14483,1.76678 -0.26048,2.64555 -0.11572,0.87857 -0.26016,1.75315 -0.43308,2.6223 -0.1728,0.86916 -0.37396,1.73246 -0.60322,2.58848 -0.2291,0.85602 -0.48618,1.70433 -0.77076,2.54356 -0.28476,0.83934 -0.59686,1.66911 -0.93586,2.48802 -0.33898,0.81872 -0.70461,1.62611 -1.09638,2.42089 -0.39178,0.79485 -0.80945,1.57669 -1.25235,2.34419 -0.44268,0.76757 -0.91037,1.52041 -1.40227,2.25737 -0.49218,0.73684 -1.00833,1.45735 -1.54764,2.16041 -0.53909,0.70319 -1.10102,1.38853 -1.68493,2.05496 -0.58409,0.66625 -1.1898,1.31322 -1.81617,1.93983 -0.62629,0.62673 -1.27291,1.23279 -1.93885,1.81719 -0.66591,0.58424 -1.35076,1.14654 -2.05342,1.68595 -0.70257,0.53947 -1.42262,1.0558 -2.15892,1.54815 -0.73643,0.49243 -1.48878,0.96058 -2.25585,1.40376 -0.767,0.44308 -1.54831,0.86092 -2.34265,1.25285 -0.79444,0.39212 -1.60151,0.75811 -2.41989,1.09738 -0.73713,0.30256 -1.483,0.58334 -2.23665,0.84197 -0.25181,0.73217 -0.52453,1.457 -0.81775,2.17357 -0.27976,0.66453 -0.57718,1.32146 -0.89193,1.97012 z m 0,0 c -0.067,0.15067 -0.13501,0.30092 -0.20394,0.45077 -0.39177,0.79485 -0.80944,1.57666 -1.25234,2.34416 -0.44284,0.76757 -0.91067,1.52042 -1.40275,2.25736 -0.49203,0.73685 -1.00801,1.45736 -1.54714,2.16042 -0.53925,0.70322 -1.10137,1.38855 -1.68543,2.05496 -0.58392,0.66625 -1.18947,1.31321 -1.81568,1.93985 -0.6263,0.62673 -1.27294,1.23279 -1.93885,1.81719 -0.52374,0.45295 -1.05898,0.89241 -1.60518,1.31795 0.0563,0.0463 0.11295,0.0926 0.16961,0.13883 0.58672,0.004 1.17313,0.0278 1.75812,0.0725 0.68653,0.057 1.37041,0.1424 2.0499,0.25593 0.6796,0.11341 1.35421,0.25488 2.02212,0.424 0.66792,0.16916 1.32856,0.36585 1.98022,0.58958 0.65165,0.22357 1.29376,0.47399 1.92471,0.75059 0.63093,0.27684 1.25015,0.57963 1.85608,0.90759 0.60591,0.3279 1.19801,0.6807 1.77477,1.05753 0.57678,0.37675 1.13771,0.77722 1.6814,1.20033 0.54382,0.42327 1.06991,0.86887 1.57692,1.33564 0.47292,0.43769 0.92873,0.89351 1.36643,1.36642 2.21972,0.40762 4.46956,0.62931 6.72611,0.66278 0.88575,4e-5 1.77127,-0.0289 2.65514,-0.0867 0.88377,-0.058 1.7654,-0.14515 2.64348,-0.26096 0.87826,-0.11554 1.75249,-0.25982 2.6213,-0.43259 0.86868,-0.17295 1.73147,-0.3743 2.58696,-0.6037 0.34377,-0.0995 0.68622,-0.20344 1.02724,-0.31197 -0.80525,-1.81633 -1.74261,-3.57109 -2.80455,-5.25016 -1.47738,-2.21225 -3.16843,-4.27389 -5.04874,-6.15521 -1.88009,-1.88144 -3.9404,-3.5735 -6.15119,-5.05179 -2.21096,-1.47816 -4.5617,-2.73535 -7.01839,-3.75351 -1.2943,-0.46591 -2.61147,-0.86569 -3.94633,-1.19783 z m -48.06212,21.25252 c 0,8.5e-4 2.37061,0.67126 3.5632,0.97473 2.60791,0.51902 5.22815,0.87733 7.88711,0.8773 0.88576,5e-5 1.77127,-0.0289 2.65512,-0.0867 0.88379,-0.058 1.76541,-0.14516 2.64351,-0.26096 0.52272,-0.0758 1.04391,-0.1618 1.5633,-0.25794 0.79497,-0.92032 1.65604,-1.7814 2.57637,-2.57637 1.46331,-1.16685 3.05304,-2.16566 4.73931,-2.97767 1.68638,-0.81221 3.45866,-1.43241 5.28348,-1.849 1.81853,-0.41444 3.67778,-0.62403 5.54293,-0.6249 0.0522,-0.0425 0.10442,-0.0853 0.15648,-0.12822 -1.33495,-0.96653 -2.60985,-2.01353 -3.81761,-3.13515 -1.88015,-1.88134 -3.57102,-3.94301 -5.04824,-6.15522 -1.02675,-1.6313 -1.93613,-3.33364 -2.72124,-5.09418 -1.38218,0.34128 -2.74542,0.75509 -4.08413,1.23972 -2.4567,1.01815 -4.80744,2.27535 -7.0184,3.75351 -2.21096,1.47826 -4.27143,3.17033 -6.15169,5.05178 -1.88014,1.88136 -3.57102,3.94298 -5.04826,6.15523 -1.02674,1.63129 -1.93613,3.33365 -2.72124,5.09417 z m 54.77109,1.18925 c -0.4377,-0.4729 -0.89351,-0.92872 -1.36643,-1.36641 -0.50701,-0.46676 -1.0331,-0.91237 -1.57692,-1.33564 -0.54369,-0.42312 -1.10462,-0.82359 -1.6814,-1.20033 -0.57676,-0.37684 -1.16886,-0.72964 -1.77477,-1.05753 -0.60593,-0.32796 -1.22515,-0.63075 -1.85608,-0.90759 -0.63095,-0.2766 -1.27306,-0.52702 -1.92471,-0.75059 -0.65166,-0.22373 -1.3123,-0.42041 -1.98022,-0.58958 -0.66791,-0.16913 -1.34252,-0.31059 -2.02212,-0.42401 -0.67949,-0.11352 -1.36337,-0.19889 -2.0499,-0.25592 -0.58499,-0.0448 -1.1714,-0.069 -1.75812,-0.0726 0.70084,0.61715 1.42276,1.20995 2.16447,1.77733 2.21076,1.47828 4.56137,2.73566 7.01787,3.75398 2.45659,1.01816 5.00717,1.79233 7.61505,2.31137 0.39716,0.045 0.79497,0.0842 1.19328,0.11761 z m -18.31676,-7.97088 c -1.86515,8.6e-4 -3.7244,0.21046 -5.54293,0.62489 -1.82482,0.41659 -3.5971,1.03679 -5.28348,1.849 -1.68627,0.81201 -3.276,1.81081 -4.73931,2.97767 -0.92033,0.79498 -1.7814,1.65605 -2.57637,2.57637 0.35323,-0.0535 0.70577,-0.11179 1.05749,-0.17465 0.86867,-0.17295 1.73147,-0.3743 2.58696,-0.6037 0.85553,-0.22948 1.70334,-0.48687 2.54204,-0.77183 0.83882,-0.28471 1.66812,-0.59685 2.48653,-0.93584 0.81822,-0.33928 1.6251,-0.70528 2.41938,-1.09739 0.79434,-0.39192 1.57564,-0.80976 2.34267,-1.25284 0.76705,-0.44317 1.51939,-0.91134 2.25583,-1.40376 0.73651,-0.49234 1.45668,-1.00867 2.15943,-1.54816 0.0975,-0.0794 0.19488,-0.15941 0.29176,-0.23976 z" />
    </g>
  </g>
</svg>
